<svg id="Layer_1" height="512" viewBox="0 0 128 128" width="512" xmlns="http://www.w3.org/2000/svg" data-name="Layer 1"><rect fill="#4e8ed5" height="115" rx="6" width="97.308" x="15.346" y="6.5"/><path d="m15.35 24.19h97.3v79.62h-97.3z" fill="#f2f2f2"/><g fill="#12304c"><circle cx="64" cy="112.654" r="4"/><path d="m72.846 17.1h-17.692a1.75 1.75 0 0 1 0-3.5h17.692a1.75 1.75 0 0 1 0 3.5z"/><path d="m106.654 4.75h-85.308a7.759 7.759 0 0 0 -7.746 7.75v67.833a1.75 1.75 0 0 0 3.5 0v-54.391h21.587a1.75 1.75 0 0 0 0-3.5h-21.587v-9.942a4.255 4.255 0 0 1 4.25-4.25h85.309a4.255 4.255 0 0 1 4.25 4.25v9.942h-46.909a1.75 1.75 0 0 0 0 3.5h46.9v76.115h-93.8v-10.724a1.75 1.75 0 0 0 -3.5 0v24.167a7.759 7.759 0 0 0 7.75 7.75h85.309a7.759 7.759 0 0 0 7.75-7.75v-103a7.759 7.759 0 0 0 -7.755-7.75zm0 115h-85.308a4.255 4.255 0 0 1 -4.25-4.25v-9.942h93.804v9.942a4.255 4.255 0 0 1 -4.246 4.25z"/><path d="m54.833 25.942a1.75 1.75 0 0 0 0-3.5h-7a1.75 1.75 0 0 0 0 3.5z"/></g></svg>